<?xml version="1.0" standalone="no"?>
<!DOCTYPE svg PUBLIC "-//W3C//DTD SVG 20010904//EN"
 "http://www.w3.org/TR/2001/REC-SVG-20010904/DTD/svg10.dtd">
<svg version="1.0" xmlns="http://www.w3.org/2000/svg"
 width="1299.000000pt" height="1300.000000pt" viewBox="0 0 1299.000000 1300.000000"
 preserveAspectRatio="xMidYMid meet">
<metadata>
Created by potrace 1.15, written by Peter Selinger 2001-2017
</metadata>
<g transform="translate(0.000000,1300.000000) scale(0.100000,-0.100000)"
fill="#000000" stroke="none">
<path d="M6446 9175 c-194 -53 -349 -212 -401 -410 -22 -88 -23 -1431 0 -1519
47 -180 189 -337 359 -396 77 -27 223 -37 308 -21 88 17 196 72 263 133 62 56
129 148 117 159 -4 4 -45 28 -92 54 l-85 46 -15 -23 c-29 -46 -104 -111 -159
-137 -76 -35 -211 -37 -284 -4 -66 31 -151 115 -184 182 l-28 56 0 710 0 710
28 57 c36 73 101 139 175 175 50 24 69 28 147 28 82 0 97 -3 157 -33 43 -21
83 -50 110 -82 l43 -48 87 56 c49 32 88 61 88 65 0 4 -35 43 -77 86 -84 84
-160 130 -260 156 -70 18 -230 18 -297 0z"/>
<path d="M7666 9175 c-193 -53 -351 -215 -401 -410 -22 -89 -22 -1431 0 -1520
51 -199 211 -359 410 -410 70 -18 192 -20 267 -4 191 39 358 196 421 394 22
70 22 74 22 780 0 661 -1 714 -18 769 -33 105 -76 177 -151 251 -77 77 -160
126 -251 150 -72 18 -231 18 -299 0z m295 -227 c76 -35 129 -85 170 -160 l34
-63 0 -720 0 -720 -34 -63 c-40 -74 -93 -124 -171 -161 -47 -22 -68 -26 -145
-26 -78 0 -97 4 -147 28 -74 36 -139 101 -175 175 l-28 57 -3 689 c-3 768 -5
746 65 845 43 62 114 114 182 136 71 23 184 15 252 -17z"/>
<path d="M8945 9162 c-97 -32 -199 -102 -257 -175 -52 -66 -103 -175 -117
-251 -7 -40 -11 -353 -11 -963 l0 -903 105 0 104 0 3 918 3 917 29 62 c34 73
113 153 183 186 39 18 66 22 143 22 85 0 101 -3 153 -30 74 -37 148 -117 179
-193 l23 -57 5 -800 c5 -796 5 -800 27 -847 59 -129 153 -194 306 -213 l57 -7
0 106 0 106 -39 6 c-50 8 -95 35 -118 71 -17 25 -18 78 -23 823 -5 789 -5 796
-27 861 -62 181 -217 326 -399 374 -96 25 -234 20 -329 -13z"/>
<path d="M3775 9151 c-170 -48 -288 -165 -352 -348 l-28 -78 -3 -600 -3 -600
-58 -42 c-78 -57 -192 -164 -213 -200 l-17 -29 85 -52 c46 -29 87 -52 90 -52
3 0 29 24 57 53 l52 52 3 -217 2 -218 105 0 105 0 0 298 0 297 253 165 c225
147 264 177 362 275 149 149 220 274 277 483 32 118 32 340 0 442 -64 202
-186 327 -367 375 -82 21 -271 19 -350 -4z m318 -211 c199 -75 269 -333 169
-625 -70 -203 -179 -323 -465 -514 l-198 -132 3 513 3 513 24 58 c27 65 88
140 135 164 91 48 236 58 329 23z"/>
<path d="M4650 8517 c0 -629 0 -632 61 -754 60 -120 179 -225 307 -273 162
-61 368 -39 509 55 l53 35 0 -87 c0 -171 -27 -263 -101 -347 -48 -54 -143
-104 -217 -113 l-52 -6 0 -103 0 -104 46 0 c216 0 431 172 510 410 17 52 19
112 22 958 l3 902 -105 0 -105 0 -3 -567 -3 -568 -24 -60 c-34 -84 -124 -174
-206 -204 -85 -32 -207 -27 -283 13 -71 36 -132 99 -168 172 l-29 59 -3 578
-3 577 -104 0 -105 0 0 -573z"/>
<path d="M3841 6004 c-134 -47 -218 -154 -229 -291 l-5 -63 100 0 100 0 7 38
c3 20 15 52 26 70 34 56 64 62 295 62 l205 0 0 -1005 0 -1005 100 0 100 0 0
1005 0 1005 139 0 c165 0 243 -19 308 -75 82 -70 77 -20 83 -905 6 -810 6
-815 47 -893 23 -46 84 -107 127 -130 30 -15 66 -22 129 -25 97 -5 154 10 208
55 l29 25 35 -26 c19 -15 53 -33 76 -41 55 -20 174 -19 232 1 58 20 132 89
158 150 47 106 49 130 49 962 0 765 0 784 20 822 24 48 56 70 110 77 l40 6 0
100 0 100 -63 -5 c-119 -10 -222 -80 -274 -187 l-28 -56 -6 -830 c-4 -671 -8
-837 -19 -868 -29 -82 -109 -111 -167 -63 -53 45 -56 67 -60 494 l-5 392 -99
0 -99 0 0 -383 c0 -421 -5 -466 -57 -506 -67 -53 -151 -9 -172 90 -7 33 -11
297 -11 784 0 499 -4 751 -11 787 -34 160 -163 286 -345 333 -87 23 -1008 21
-1073 -1z"/>
<path d="M8594 5966 c-142 -27 -236 -71 -313 -147 -137 -135 -173 -389 -80
-571 48 -93 168 -186 268 -204 l36 -7 -58 -13 c-177 -41 -305 -165 -353 -341
-21 -80 -21 -259 1 -343 41 -157 148 -288 295 -358 122 -58 215 -76 385 -76
208 0 354 41 474 132 143 108 221 275 221 472 0 158 -45 285 -135 379 -66 69
-129 105 -226 130 -68 17 -70 19 -38 25 48 9 134 51 176 85 53 44 101 118 123
189 24 76 27 230 6 307 -43 162 -169 275 -365 327 -99 26 -316 33 -417 14z
m414 -126 c183 -65 269 -192 260 -383 -5 -111 -29 -167 -99 -237 -91 -91 -218
-134 -399 -134 -187 1 -316 48 -410 151 -142 155 -109 433 64 546 106 70 182
87 371 83 124 -3 161 -7 213 -26z m-24 -890 c210 -53 332 -178 359 -365 47
-328 -195 -574 -566 -575 -381 -1 -610 227 -575 572 17 170 143 309 330 363
134 38 314 40 452 5z"/>
<path d="M7347 5887 c-112 -157 -295 -276 -466 -303 l-41 -7 0 -53 c0 -64 1
-64 127 -34 142 34 256 91 366 182 l47 40 0 -886 0 -886 60 0 60 0 0 1005 0
1005 -54 0 -54 0 -45 -63z"/>
</g>
</svg>
