<?xml version="1.0" encoding="utf-8"?>
<!-- Generator: Adobe Illustrator 21.1.0, SVG Export Plug-In . SVG Version: 6.00 Build 0)  -->
<svg version="1.1" id="圖層_1" xmlns="http://www.w3.org/2000/svg" xmlns:xlink="http://www.w3.org/1999/xlink" x="0px" y="0px"
	 viewBox="0 0 841.9 595.3" style="enable-background:new 0 0 841.9 595.3;" xml:space="preserve">
<style type="text/css">
	.st0{fill:#EA5037;}
</style>
<g>
	<path class="st0" d="M544.6,235.3L544.6,235.3c-6.6,0-11.9,5.3-11.9,11.9v74.3h-62.4v-74.3c0-6.6-5.3-11.9-11.9-11.9
		c-6.6,0-11.9,5.3-11.9,11.9v86.2c0,6.6,5.3,11.9,11.9,11.9h31.2v52.6c0,6.6,5.3,11.9,11.9,11.9c6.6,0,11.9-5.3,11.9-11.9v-52.6
		h31.2h0c6.6,0,11.9-5.3,11.9-11.9v-86.2C556.5,240.6,551.2,235.3,544.6,235.3z"/>
	<path class="st0" d="M405.4,235.3h-86.2c-6,0-10.9,4.5-11.7,10.3h-9l-14.2-9.7v2.3l12.7,8.6l-12.7,8.6v4.3l14.6-10h8.7
		c1.2,5.3,5.9,9.3,11.6,9.3h74.3v62.4h-62.4v-22.5c0-6.6-5.3-11.9-11.9-11.9c-6.6,0-11.9,5.3-11.9,11.9v99c0,6.6,5.3,11.9,11.9,11.9
		c6.6,0,11.9-5.3,11.9-11.9v-52.6h74.3c6.6,0,11.9-5.3,11.9-11.9v-86.2C417.3,240.6,412,235.3,405.4,235.3z M328.3,255.1h-9.6v-5.5
		h9.6V255.1z M328.3,245.6h-9.6V240h9.6V245.6z"/>
</g>
</svg>
